# xmcd
#
# Track frame offsets:
#	150
#	31350
#	65187
#	83807
#	101525
#	134562
#
# Disc length: 2065 seconds
# Revision: 0
# Processed by: cddbd v1.5.2PL0 Copyright (c) Steve Scherf et al.
# Submitted via: dBpowerAMP V12.0
#
DISCID=51080f06
DTITLE=The Party - Free [Single]
DYEAR=1992
DGENRE=House
TTITLE0=Free [Hurley's 12" With Rap]
TTITLE1=Free [E-Smoove's Free Mix]
TTITLE2=Free [Hurley's 7" With Rap]
TTITLE3=Free [E-Smoove's Free Edit]
TTITLE4=Free [Maurice's Free Me Mix]
TTITLE5=Free [Album Version]
EXTD=
EXTT0=
EXTT1=
EXTT2=
EXTT3=
EXTT4=
EXTT5=
PLAYORDER=
